<?xml version="1.0" encoding="UTF-8"?>
<svg width="24px" height="31px" viewBox="0 0 24 31" version="1.1" xmlns="http://www.w3.org/2000/svg" xmlns:xlink="http://www.w3.org/1999/xlink">
    <!-- Generator: Sketch 47.1 (45422) - http://www.bohemiancoding.com/sketch -->
    <title>noun_1268460_cc</title>
    <desc>Created with Sketch.</desc>
    <defs></defs>
    <g id="Symbols" stroke="none" stroke-width="1" fill="none" fill-rule="evenodd">
        <g id="copied" transform="translate(-23.000000, -13.000000)" fill-rule="nonzero" fill="#000000">
            <g id="noun_1268460_cc" transform="translate(23.000000, 13.000000)">
                <polygon id="Shape" points="11.1564706 18.7552941 8.32588235 16.2247059 7.38352941 17.2764706 11.2447059 20.7317647 16.5705882 15.0211765 15.5364706 14.0576471"></polygon>
                <path d="M18.5435294,2.21294118 L16.1294118,2.21294118 L15.6988235,0.0741176471 L8.28705882,0.0741176471 L7.87058824,2.21294118 L5.45647059,2.21294118 L5.45647059,3.92470588 L0.328235294,3.92470588 L0.328235294,30.9847059 L23.6717647,30.9847059 L23.6717647,3.92117647 L18.5435294,3.92117647 L18.5435294,2.21294118 Z M6.87176471,3.62470588 L9.03176471,3.62470588 L9.45882353,1.48588235 L14.5447059,1.48588235 L14.9717647,3.62470588 L17.1317647,3.62470588 L17.1317647,5.78117647 L6.86823529,5.78117647 L6.87176471,3.62470588 Z M22.2635294,5.33647059 L22.2635294,29.5729412 L1.74,29.5729412 L1.74,5.33294118 L5.45647059,5.33294118 L5.45647059,7.19294118 L18.5435294,7.19294118 L18.5435294,5.33294118 L22.2635294,5.33647059 Z" id="Shape"></path>
            </g>
        </g>
    </g>
</svg>