<?xml version="1.0" standalone="no"?>
<!DOCTYPE svg PUBLIC "-//W3C//DTD SVG 20010904//EN"
 "http://www.w3.org/TR/2001/REC-SVG-20010904/DTD/svg10.dtd">
<svg version="1.0" xmlns="http://www.w3.org/2000/svg"
 width="500.000000pt" height="500.000000pt" viewBox="0 0 500.000000 500.000000"
 preserveAspectRatio="xMidYMid meet">
<metadata>
Created by potrace 1.11, written by Peter Selinger 2001-2013
</metadata>
<g transform="translate(0.000000,500.000000) scale(0.100000,-0.100000)"
fill="#000000" stroke="none">
<path d="M2187 4799 c-108 -56 -160 -62 -419 -48 -20 1 -37 -8 -61 -33 -19
-20 -59 -48 -89 -62 -98 -47 -215 -152 -283 -256 -23 -36 -88 -116 -144 -179
-116 -130 -159 -197 -237 -372 -31 -68 -61 -137 -69 -154 -16 -36 -33 -102
-33 -130 -1 -45 23 -133 50 -188 16 -32 26 -62 23 -67 -17 -27 -16 -129 1
-176 14 -39 18 -86 19 -239 1 -104 5 -201 8 -214 39 -153 70 -212 134 -258 48
-34 48 -34 51 -11 2 13 9 28 16 33 7 6 17 23 22 38 9 28 11 26 46 -50 72 -158
87 -193 79 -193 -4 0 -44 -29 -89 -65 -86 -69 -137 -143 -173 -250 -31 -91
-12 -250 39 -321 9 -14 61 -50 116 -81 87 -50 101 -62 118 -101 16 -35 29 -48
65 -64 53 -23 137 -25 206 -4 49 15 55 12 63 -26 17 -80 17 -88 -3 -88 -19 0
-53 -28 -53 -44 0 -4 -7 -14 -15 -22 -33 -34 -16 -113 37 -166 10 -10 35 -53
57 -97 144 -286 295 -488 416 -556 28 -16 98 -62 157 -102 110 -76 214 -130
265 -139 15 -3 35 -7 44 -10 9 -2 32 -7 50 -9 19 -3 45 -7 59 -11 39 -9 110
-12 110 -4 0 4 29 8 65 9 59 2 90 10 170 46 337 151 359 171 501 458 95 191
137 304 180 485 43 185 81 333 151 592 30 113 56 212 58 220 14 75 16 93 29
377 3 58 -5 70 -60 92 -26 10 -31 17 -28 39 2 15 6 112 9 216 4 104 8 196 10
205 1 9 6 51 10 94 4 42 10 77 14 77 4 0 17 -9 29 -20 l21 -20 26 33 c14 19
25 39 25 45 0 7 4 12 9 12 26 0 38 106 47 395 4 155 13 233 40 340 19 76 15
111 -19 147 -12 13 -28 31 -35 40 -19 23 -68 174 -77 233 -9 66 -58 167 -95
199 -21 17 -48 27 -87 31 -52 7 -62 12 -103 55 -48 50 -118 90 -240 138 -166
65 -480 158 -633 187 -66 12 -76 12 -126 -6 -74 -26 -114 -25 -316 6 -22 4
-44 11 -49 16 -17 16 -49 9 -109 -22z"/>
</g>
</svg>
