<?xml version="1.0" encoding="utf-8"?>
<!-- Generator: Adobe Illustrator 22.1.0, SVG Export Plug-In . SVG Version: 6.00 Build 0)  -->
<svg version="1.1" baseProfile="tiny" id="Calque_1"
	 xmlns="http://www.w3.org/2000/svg" xmlns:xlink="http://www.w3.org/1999/xlink" x="0px" y="0px" viewBox="0 0 1112 1365"
	 xml:space="preserve">
<g>
	<path d="M192,262c-2,8.8-2.8,18.1-6.1,26.4c-11.3,28.3-24.2,56.1-34.7,84.7c-2.1,5.8,4.6,14.4,6.1,22c3.5,18.6,5.7,37.5,9.6,56
		c1.7,8.2,7.9,15.5,9.3,23.7c3.2,18.5,6.7,37.3,6.5,56c-0.3,21.2-8.5,42.7-6.1,63.3c2.9,25.6,14.2,50.1,19.7,75.5
		c1.9,8.5-2.7,18.4-4.4,27.7c-9.4-6.8-22.2-11.7-27.6-20.9c-9.2-15.6-15.6-33.5-19.6-51.2c-4.1-18.1-6.1-37.3-4.9-55.8
		c1.9-28.8,5.2-56.2-8.2-84.3c-5.2-10.8,4.4-27.9,3.4-41.8c-0.7-9.3-9.7-17.7-12.3-27.3c-3.9-14-9.2-29.3-7.2-43
		c2.6-17.7,10.9-34.9,18.3-51.5c10.9-24.3,20.7-49.7,35.6-71.4c17.3-25.1,40.3-46.2,59.8-69.9c9.5-11.5,15.2-26.2,25.2-37.1
		c12.9-14,27.7-26.7,43-37.9C311.4,95,331.8,90.8,341.1,78c15.3-21,29.3-4.3,43.8-5c19.5-0.8,39.5-0.7,58.2-5.2
		c16-3.8,30.3-14.4,46.2-19.7c5.3-1.8,12.9,4.3,19.6,5.3c23.1,3.4,46.3,8.1,69.5,8.4c13.9,0.1,28.5-11.8,41.8-10.1
		c26.9,3.3,53.3,11.8,79.7,18.7c18.2,4.8,36.3,10.1,54.2,16c19.3,6.3,38.6,13,57.4,20.6c16.4,6.7,32.9,13.6,47.8,23
		c9.4,5.9,14.5,19.1,24.1,23.9c11.3,5.7,27.9,2.4,37.6,9.4c10.7,7.7,18,21.9,23.3,34.7c5.3,12.8,5.8,27.5,9.5,41.1
		c3.5,12.8,7.9,25.3,12.8,37.6c2.1,5.2,5.7,10.5,10,14c16.2,13.1,12.2,29.5,8.6,46c-3.1,13.9-7,27.7-9.1,41.8
		c-1.5,10.4-0.3,21.1-0.7,31.6c-1,27.2-2.1,54.3-3.5,81.4c-0.6,11.3-0.9,22.8-3.9,33.6c-2,7.1-8.5,13-12.9,19.4
		c-6.9-7-19.7-13.9-19.8-21c-0.2-26.9,4.4-53.8,5.6-80.7c0.6-12.7-4.9-25.8-3.6-38.2c2.3-20.6,6.1-41.5,12.7-61.1
		c6.1-18.3,7.9-31.9-11.8-42.9c-5.7-3.2-8.4-13.2-10.8-20.6c-5.4-16.9-9.7-34.1-14.4-51.2c-0.3-0.9-1.5-1.9-1.3-2.6
		c7.2-33-19.3-31.6-38.5-39.9c-18.6-8.1-34.9-21.4-52.9-31.1c-30.1-16.3-60-33.7-91.5-46.7c-27.7-11.5-57.1-20.9-86.6-25.1
		c-20.9-3-43.3,4.6-65,6.8c-9.4,1-18.9,1-28.3,0.2c-19.4-1.6-38.9-6.5-58.1-5.3c-14.7,0.9-28.6,10.6-43.5,13.7
		c-25.4,5.2-51.2,8.9-77,12.2c-30.6,3.9-56.5,16-74.2,41.8c-8.6,12.5-7.7,13.3-19,21c-16.3,11,0,0-19.5,20.8
		c-6.3-0.7-25.9,17.4-32.5,18.8c0,0-11.8,17.7-11.8,17.7C210.8,243.7,194.7,249.3,192,262C192,262,192,262,192,262z"/>
	<path d="M834.5,1124.1c4.6-18.1,9.7-36,13.8-54.2c10.6-46.6,19.8-93.6,31.3-140c7-28.3,20-55.4,24.8-84c4.8-28.2,1.3-57.8,4.2-86.5
		c1.4-13.8,9.1-26.9,13.9-40.3c7.6,4,20.9,7.2,21.6,12.3c2.2,14.7-0.6,30.1-1.6,45.2c-1.3,21.1-1,42.4-4.6,63.1
		c-3.7,21.7-11.3,42.8-16.9,64.2c-10.2,39.1-20.3,78.2-30.2,117.4c-8.9,35.1-14.8,71.3-27,105.2c-13.3,37-31.1,72.6-49.2,107.7
		c-19.9,38.5-57.3,55.9-95.1,71.9c-14.9,6.3-29.4,14-44.7,19.3c-7.4,2.5-16.3,0.6-24.4,1.1c-11,0.7-22.4,4.2-33,2.4
		c-25.1-4.2-51.4-7.3-74.3-17.5c-25.2-11.2-47.1-29.9-70.5-45.1c-14.5-9.4-31.7-16.2-43.3-28.3c-19.5-20.4-37.5-42.8-52.5-66.6
		c-18.7-29.6-33.4-61.7-50.6-92.3c-4.2-7.4-14.6-12.1-16.6-19.6c-2.4-8.9-2.4-24.5,2.9-28.4c14.8-10.7,23.5,2.4,29.7,14.6
		c15,29.6,27.2,60.9,44.6,88.9c25.6,41,52.2,82.2,98.8,104.1c14.1,6.6,27.2,15.6,40.3,24.2c22.3,14.6,43.7,31.6,71.9,32.4
		c12.3,0.4,24.7-2.1,37.1-3c4.2-0.3,8.6,0.6,12.8,0.4c2.8-0.1,5.6-1.4,8.4-1.4c7.4-0.2,15.6,2.1,22.1-0.3
		c25.4-9.5,55.8-14.7,73.9-32.2c25.9-25.1,43.4-59.3,63.2-90.4c8.5-13.4,13.9-28.9,20.7-43.4C835.6,1124.8,835,1124.4,834.5,1124.1z
		"/>
	<path d="M568.2,1151.9c7.1-10.6,13.7-20.5,20.5-30.3c0.7-1,2.6-1.8,3.9-1.8c23.7-0.4,47.5,0.3,71.2-1.2c21.6-1.4,43.1-4.7,64.4-8.3
		c2.3-0.4,5.7-8.7,4.7-12.2c-2.3-7.8-6.2-15.6-11.3-22c-2.6-3.3-10.5-6.3-13.5-4.7c-10.5,5.5-21.4,11.7-29.6,20.1
		c-17.8,18.1-31,2-41.9-6.6c-16.9-13.5-31.7-15.4-48.6-1.8c-16,12.9-33.9,23.6-50.1,36.3c-8.2,6.4-13.9,15.9-22.1,22.2
		c-3.3,2.5-14.5,1.4-14.9-0.1c-2.3-8.3-6.5-21.1-2.6-25.3c19.7-20.6,41.4-39.4,63.2-57.8c9.2-7.7,19.9-16.6,30.9-18.3
		c12.1-1.9,27.1,0.9,37.8,7c27.3,15.3,36.7,15.9,60.8-4.2c11-9.2,43.3-3.7,49.3,9.4c8.6,18.9,16.5,38.1,23.6,57.6
		c4.4,12.1-15.6,32-32.3,33.3c-30.4,2.4-60.9,4.2-91.1,8c-8.7,1.1-16.5,8.4-24.7,12.9c7,9.7,12.4,21.3,21.3,28.7
		c26.2,21.9,47.7-0.9,70.5-9.8c14.9-5.8,29.3-12.8,44.4-18.2c3.3-1.2,11.8,2.1,11.9,3.6c0.2,5.9,0.1,14.5-3.6,17.4
		c-10.5,8.1-22.1,15.7-34.5,20.3c-25.4,9.4-51.2,18.3-77.5,24.5c-21.4,5-30.9-14.2-42.6-27.2c-8-8.9-15.5-18.5-22.7-28.1
		C578.7,1169.5,575.3,1163.2,568.2,1151.9z"/>
	<path d="M192.7,858.2c-0.8,29.8,12.8,43.9,44.2,56c12.1,4.7,19,21.7,30.6,29.6c9.2,6.3,21.9,9,33.3,10.1c10.3,1,23-6.4,31.2-2.6
		c10,4.7,2.1,26-12.3,29c-24.2,5-49.8,10.7-71.9-6c-5.9-4.5-6.1-16.1-11.6-21.8c-6.3-6.5-15.8-9.7-23.7-14.9
		c-12.7-8.3-30.2-14.3-36.8-26.2c-21.4-38.7-18.4-79.4,5.1-116.4c8.8-13.7,25.5-22.2,37.8-33.9c11.1-10.5,24.7-12.8,36.4-6.7
		c8.5,4.5,13.2,16.3,19.6,24.8c-6.8,3.2-15.8,10.9-20.1,8.9c-15.5-7.3-25.8,1.8-32.7,10.6c-13.4,17.2-23.5,37-35,55.7
		C188.9,855.7,190.8,857,192.7,858.2z"/>
	<path d="M476.8,608.3c17.8-1.3,31.7-4.1,44.9-2.3c6.2,0.8,11.2,10.5,16.7,16.2c-6.8,5.5-12.9,14.5-20.5,15.8
		c-13.1,2.3-27.3-1.8-40.6,0c-29.5,4-49.2,24.1-67.2,45.6c-14.4,17.3-27,36.1-42.2,52.6c-3.6,3.9-14.6,1.1-22.1,1.4
		c0.3-9.4-3-21.6,1.6-27.8c14.9-20.3,31.8-39.4,49.7-57.2C420.4,629.6,444.3,606.3,476.8,608.3z"/>
	<path d="M722,955.5c-9.2-16.1-17.3-31.8-26.7-46.5c-9.5-14.9-21.4-28.4-29.6-43.9c-1.9-3.7,7.2-18.8,10.3-18.5
		c8.3,0.8,19.6,4.9,23.6,11.5c13,21.2,22.4,44.5,34.7,66.2c22.1,39.2,20.6,45.7-9.6,71.8c-9.1,7.8-22.9,10.9-35.1,14
		c-3.6,0.9-9-6-13.7-9.3c3.4-4.5,6.1-10.3,10.5-13.3c7.6-5.2,17.2-7.5,24.3-13.1C715.6,970.5,717.6,963.3,722,955.5z"/>
	<path d="M715.9,639.3c15.6-7.3,24.5-13.5,34.4-15.7c23.7-5.4,47.7-10.1,71.8-12.7c20.3-2.2,41-1.8,61.4-0.4
		c3.2,0.2,5.7,11.5,8.5,17.6c-8.6,3.9-16.9,9.8-26,11.3c-24.4,4-49.2,5.1-73.5,9.1c-18.2,3-35.8,10.2-54,12.3
		C733.5,661.4,727.2,650.4,715.9,639.3z"/>
	<path d="M762.4,755.6c0.1-17.4,21.2-40.1,37.5-39c17.2,1.2,37.2,20.8,37.9,41.8c0.5,15.1-17,34.4-30.2,34.3
		C779.1,792.4,762.2,778.6,762.4,755.6z"/>
	<path d="M471.8,769.2c11.8-11.9,22.2-31.7,35.7-34.1c27.3-4.9,45.1,12.8,45.2,34.9c0,13.8-30.3,38.3-48.3,35.7
		c-16.4-2.4-31.8-10-27.2-32.8C475.4,771.5,473.6,770.3,471.8,769.2z"/>
	<path d="M293.6,828.7c10,13.5,20.6,22.3,23.4,33.1c3,11.6-3.2,28-16.9,27.7c-13-0.3-30.1-8.5-27.8-26.1
		C273.7,852.9,284.1,843.6,293.6,828.7z"/>
</g>
</svg>
