<?xml version="1.0" encoding="utf-8"?>
<!-- Generator: Adobe Illustrator 18.1.1, SVG Export Plug-In . SVG Version: 6.00 Build 0)  -->
<svg version="1.1" id="Calque_1" xmlns="http://www.w3.org/2000/svg" xmlns:xlink="http://www.w3.org/1999/xlink" x="0px" y="0px"
	 viewBox="0 0 20 15" enable-background="new 0 0 20 15" xml:space="preserve">
<g>
	<g>
		<path fill="#D8D8D8" d="M19.7,15H0.3V2.2L2.2,0h6v2.1l2.9,0c2.6,0,5.3,0,8.4,0l0.2,0V15z M0.6,14.7h18.7V2.5c-3,0-5.7,0-8.2,0
			l-3.3,0V0.3H2.3l-1.7,2V14.7z"/>
	</g>
	<g>
		<rect x="0.5" y="2.2" fill="#D8D8D8" width="19.1" height="0.3"/>
	</g>
	<g>
		<g>
			<path fill="#D8D8D8" d="M8.4,4.6h0.9v0.1H8.9v1.1H8.8V4.7L8.4,4.6L8.4,4.6z"/>
		</g>
		<g>
			<path fill="#D8D8D8" d="M9.6,4.6h0.7v0.1L9.6,4.6l0.1,0.5h0.6v0.1H9.6v0.5h0.7v0.1H9.6V4.6z"/>
		</g>
		<g>
			<path fill="#D8D8D8" d="M10.6,4.6h0.5c0.1,0,0.2,0,0.2,0.1c0.1,0.1,0.1,0.1,0.1,0.2c0,0.1,0,0.1-0.1,0.2c0,0.1-0.1,0.1-0.2,0.1
				l0.3,0.5h-0.1l-0.3-0.5h-0.4v0.5h-0.1V4.6z M11.1,5.2c0.1,0,0.1,0,0.2-0.1c0-0.1,0.1-0.1,0.1-0.2c0-0.1,0-0.1-0.1-0.2
				c0-0.1-0.1-0.1-0.2-0.1h-0.4v0.5H11.1z"/>
		</g>
		<g>
			<path fill="#D8D8D8" d="M11.7,4.6h0.5c0.1,0,0.2,0,0.2,0.1c0.1,0.1,0.1,0.1,0.1,0.2c0,0.1,0,0.1-0.1,0.2c0,0.1-0.1,0.1-0.2,0.1
				l0.3,0.5h-0.1l-0.3-0.5h-0.4v0.5h-0.1V4.6z M12.1,5.2c0.1,0,0.1,0,0.2-0.1c0-0.1,0.1-0.1,0.1-0.2c0-0.1,0-0.1-0.1-0.2
				c0-0.1-0.1-0.1-0.2-0.1h-0.4v0.5H12.1z"/>
		</g>
		<g>
			<path fill="#D8D8D8" d="M13,4.6h0.1l0.4,1.1h-0.1c0,0,0-0.1-0.1-0.2c0-0.1,0-0.1-0.1-0.2h-0.5l-0.1,0.4h-0.1L13,4.6z M13.3,5.3
				l-0.2-0.7h0l-0.2,0.7H13.3z"/>
		</g>
		<g>
			<path fill="#D8D8D8" d="M13.8,4.6h0.7v0.1L13.8,4.6l0.1,0.5h0.6v0.1h-0.6v0.5h-0.1V4.6z"/>
		</g>
		<g>
			<path fill="#D8D8D8" d="M14.9,4.7c0,0,0.1-0.1,0.1-0.1c0.1,0,0.1,0,0.2,0s0.1,0,0.2,0c0.1,0,0.1,0.1,0.1,0.1
				c0.1,0.1,0.1,0.3,0.1,0.4c0,0.2,0,0.3-0.1,0.4c0,0-0.1,0.1-0.1,0.1c-0.1,0-0.1,0-0.2,0s-0.1,0-0.2,0c-0.1,0-0.1-0.1-0.1-0.1
				c-0.1-0.1-0.1-0.3-0.1-0.4C14.7,5,14.8,4.8,14.9,4.7z M14.9,5.5c0,0,0.1,0.1,0.1,0.1c0,0,0.1,0,0.2,0c0.1,0,0.1,0,0.2,0
				c0,0,0.1-0.1,0.1-0.1c0.1-0.1,0.1-0.2,0.1-0.4c0-0.2,0-0.3-0.1-0.4c0,0-0.1-0.1-0.1-0.1c0,0-0.1,0-0.2,0c-0.1,0-0.1,0-0.2,0
				c0,0-0.1,0.1-0.1,0.1c-0.1,0.1-0.1,0.2-0.1,0.4C14.8,5.3,14.8,5.4,14.9,5.5z"/>
		</g>
		<g>
			<path fill="#D8D8D8" d="M15.9,4.6h0.5c0.1,0,0.2,0,0.2,0.1c0.1,0.1,0.1,0.1,0.1,0.2c0,0.1,0,0.1-0.1,0.2c0,0.1-0.1,0.1-0.2,0.1
				l0.3,0.5h-0.1l-0.3-0.5h-0.4v0.5h-0.1V4.6z M16.3,5.2c0.1,0,0.1,0,0.2-0.1c0-0.1,0.1-0.1,0.1-0.2c0-0.1,0-0.1-0.1-0.2
				c0-0.1-0.1-0.1-0.2-0.1h-0.4v0.5H16.3z"/>
		</g>
		<g>
			<path fill="#D8D8D8" d="M16.9,4.6H17l0.3,0.9h0l0.3-0.9h0.2v1.1h-0.1V4.6h0l-0.3,1h-0.1L16.9,4.6L16.9,4.6l0.1,1.1h-0.1V4.6z"/>
		</g>
		<g>
			<path fill="#D8D8D8" d="M18.3,4.6h0.1l0.4,1.1h-0.1c0,0,0-0.1-0.1-0.2c0-0.1,0-0.1-0.1-0.2h-0.5L18,5.7h-0.1L18.3,4.6z M18.6,5.3
				l-0.2-0.7h0l-0.2,0.7H18.6z"/>
		</g>
	</g>
</g>
</svg>
