<?xml version="1.0" encoding="utf-8"?>
<!-- Generator: Adobe Illustrator 18.1.1, SVG Export Plug-In . SVG Version: 6.00 Build 0)  -->
<svg version="1.1" id="Calque_1" xmlns="http://www.w3.org/2000/svg" xmlns:xlink="http://www.w3.org/1999/xlink" x="0px" y="0px"
	 viewBox="0 0 15 15" enable-background="new 0 0 15 15" xml:space="preserve">
<g>
	<g>
		<polygon fill="#C0F0EB" points="0.5,0.8 5,5.3 5.3,5 0.8,0.5 2.8,0.5 2.8,0 0.2,0 0,0.2 0,2.8 0.5,2.8 		"/>
		<polygon fill="#C0F0EB" points="2.8,15 2.8,14.5 0.8,14.5 5.3,10 5,9.7 0.5,14.2 0.5,12.2 0,12.2 0,14.8 0.2,15 		"/>
		<polygon fill="#C0F0EB" points="14.5,14.2 10,9.7 9.7,10 14.2,14.5 12.2,14.5 12.2,15 14.8,15 15,14.8 15,12.2 14.5,12.2 		"/>
		<polygon fill="#C0F0EB" points="12.2,0 12.2,0.5 14.2,0.5 9.7,5 10,5.3 14.5,0.8 14.5,2.8 15,2.8 15,0.2 14.8,0 		"/>
	</g>
</g>
</svg>
