<?xml version="1.0" encoding="utf-8"?>
<!-- Generator: Adobe Illustrator 18.1.1, SVG Export Plug-In . SVG Version: 6.00 Build 0)  -->
<svg version="1.1" id="Calque_1" xmlns="http://www.w3.org/2000/svg" xmlns:xlink="http://www.w3.org/1999/xlink" x="0px" y="0px"
	 viewBox="0 0 200 20" enable-background="new 0 0 200 20" xml:space="preserve">
<g id="Txt_1_">
	<path fill="#AFAFAF" d="M1.1,4.8h7v0.5H4.8V14H4.3V5.4H1.1V4.8z"/>
	<path fill="#AFAFAF" d="M22.8,4.8h5.7v0.5h-5.2v3.7h4.8v0.5h-4.8v3.8h5.6V14h-6.1V4.8z"/>
	<path fill="#AFAFAF" d="M43.6,4.8h3.8c0.7,0,1.2,0.2,1.7,0.8c0.5,0.5,0.7,1.2,0.7,1.9c0,0.6-0.2,1.1-0.5,1.6
		c-0.3,0.5-0.8,0.8-1.3,0.9l2.1,3.9h-0.6l-2-3.8h-3.3V14h-0.5V4.8z M47.3,9.6c0.5,0,1-0.2,1.3-0.6s0.5-0.9,0.5-1.5
		c0-0.6-0.2-1.1-0.5-1.5c-0.4-0.4-0.8-0.6-1.3-0.6h-3.2v4.3H47.3z"/>
	<path fill="#AFAFAF" d="M64.6,4.8h3.8c0.7,0,1.2,0.2,1.7,0.8c0.5,0.5,0.7,1.2,0.7,1.9c0,0.6-0.2,1.1-0.5,1.6
		c-0.3,0.5-0.8,0.8-1.3,0.9l2.1,3.9h-0.6l-2-3.8h-3.3V14h-0.5V4.8z M68.3,9.6c0.5,0,1-0.2,1.3-0.6s0.5-0.9,0.5-1.5
		c0-0.6-0.2-1.1-0.5-1.5c-0.4-0.4-0.8-0.6-1.3-0.6h-3.2v4.3H68.3z"/>
	<path fill="#AFAFAF" d="M107.5,4.9h5.7v0.5H108v3.7h4.7v0.5H108V14h-0.5V4.9z"/>
	<path fill="#AFAFAF" d="M128.4,6c0.3-0.4,0.7-0.7,1.2-1c0.5-0.2,0.9-0.3,1.4-0.3s1,0.1,1.5,0.3c0.5,0.2,0.9,0.5,1.2,1
		c0.7,0.9,1.1,2,1.1,3.4s-0.4,2.6-1.1,3.5c-0.3,0.4-0.7,0.7-1.2,0.9c-0.5,0.2-1,0.3-1.5,0.3s-1-0.1-1.4-0.3c-0.5-0.2-0.9-0.5-1.2-1
		c-0.7-0.9-1.1-2-1.1-3.4S127.6,6.9,128.4,6z M128.7,12.4c0.3,0.4,0.7,0.6,1,0.8c0.4,0.2,0.8,0.3,1.3,0.3c0.4,0,0.8-0.1,1.2-0.3
		c0.4-0.2,0.8-0.5,1-0.8c0.6-0.8,0.9-1.8,0.9-3c0-1.2-0.3-2.2-0.9-3c-0.3-0.4-0.7-0.7-1-0.8c-0.4-0.2-0.8-0.3-1.3-0.3
		c-0.4,0-0.8,0.1-1.2,0.3c-0.4,0.2-0.7,0.5-1,0.8c-0.6,0.8-1,1.8-1,3C127.8,10.7,128.1,11.7,128.7,12.4z"/>
	<path fill="#AFAFAF" d="M149,4.9h3.8c0.7,0,1.2,0.2,1.7,0.8c0.5,0.5,0.7,1.2,0.7,1.9c0,0.6-0.2,1.1-0.5,1.6
		c-0.3,0.5-0.8,0.8-1.3,0.9l2.1,3.9h-0.6l-2-3.8h-3.3V14H149V4.9z M152.8,9.6c0.5,0,1-0.2,1.3-0.6s0.5-0.9,0.5-1.5
		c0-0.6-0.2-1.1-0.5-1.5c-0.4-0.4-0.8-0.6-1.3-0.6h-3.2v4.3H152.8z"/>
	<path fill="#AFAFAF" d="M169.6,4.9h1.2l2.1,7.5h0.2l2.1-7.5h1.2V14h-0.5V5.2h-0.2l-2.2,7.6h-1l-2.2-7.6h-0.2V14h-0.5V4.9z"/>
	<path fill="#AFAFAF" d="M89.1,4.8H88L85.1,14h0.6l0.9-2.8l0.2-0.5l1.7-5.4h0.3l1.7,5.4l0.2,0.5c0.1,0.4,0.2,0.8,0.5,1.5
		c0.2,0.7,0.3,1.1,0.4,1.3h0.6L89.1,4.8z"/>
	<path fill="#AFAFAF" d="M194.6,4.8h-1.1l-2.9,9.1h0.6l0.9-2.8l0.2-0.5l1.7-5.4h0.3l1.7,5.4l0.2,0.5c0.1,0.4,0.2,0.8,0.5,1.5
		c0.2,0.7,0.3,1.1,0.4,1.3h0.6L194.6,4.8z"/>
</g>
</svg>
