<?xml version="1.0" encoding="utf-8"?>
<!-- Generator: Adobe Illustrator 19.0.0, SVG Export Plug-In . SVG Version: 6.00 Build 0)  -->
<svg version="1.1" id="circle" xmlns="http://www.w3.org/2000/svg" xmlns:xlink="http://www.w3.org/1999/xlink" x="0px" y="0px"
	 viewBox="0 0 500 500" style="enable-background:new 0 0 500 500;" xml:space="preserve">
<style type="text/css">
	.st0{fill:#848484;}
</style>
<g>
	<path class="st0" d="M362.9,212.8c-16.1-48.9-61.5-81.7-112.9-81.7c-51.5,0-96.9,32.8-112.9,81.7l-0.7-0.2
		c16.1-49.2,61.8-82.3,113.7-82.3c51.8,0,97.4,33.1,113.7,82.3L362.9,212.8z"/>
</g>
<g>
	<path class="st0" d="M250,369.7c-51.9,0-97.5-33.1-113.7-82.3l0.7-0.2c16,48.9,61.4,81.7,112.9,81.7c51.4,0,96.8-32.8,112.9-81.7
		l0.7,0.2C347.4,336.6,301.8,369.7,250,369.7z"/>
</g>
</svg>
