<?xml version="1.0" encoding="utf-8"?>
<!-- Generator: Adobe Illustrator 19.0.0, SVG Export Plug-In . SVG Version: 6.00 Build 0)  -->
<svg version="1.1" id="nuclear" xmlns="http://www.w3.org/2000/svg" xmlns:xlink="http://www.w3.org/1999/xlink" x="0px" y="0px"
	 viewBox="0 0 500 500" style="enable-background:new 0 0 500 500;" xml:space="preserve">
<style type="text/css">
	.st0{fill:#4F4F4F;}
</style>
<g id="bld_5_">
	<path class="st0" d="M324.2,246h-52.9v-0.8c0-7.6-4.1-14.6-10.6-18.4l-0.6-0.4l26.5-45.8l0.6,0.4c22.9,13.2,37.1,37.8,37.1,64.3
		V246z M272.8,244.5h49.9c-0.3-25.4-13.9-48.9-35.7-61.8l-25,43.2C268.5,229.9,272.5,236.9,272.8,244.5z"/>
</g>
<g id="bld_1_">
	<path class="st0" d="M250,319.4c-12.8,0-25.7-3.3-37.1-9.9l-0.6-0.4l26.5-45.8l0.6,0.4c6.6,3.8,14.7,3.8,21.3,0l0.6-0.4l26.5,45.8
		l-0.6,0.4C275.7,316.1,262.8,319.4,250,319.4z M214.3,308.6c22.1,12.5,49.3,12.5,71.4,0l-25-43.2c-6.7,3.6-14.8,3.6-21.5,0
		L214.3,308.6z"/>
</g>
<g id="bld_3_">
	<path class="st0" d="M228.7,246h-52.9v-0.8c0-26.4,14.2-51,37.1-64.3l0.6-0.4l26.5,45.8l-0.6,0.4c-6.6,3.8-10.6,10.9-10.6,18.4V246
		z M177.3,244.5h49.9c0.3-7.6,4.3-14.6,10.7-18.6l-25-43.2C191.2,195.6,177.6,219.1,177.3,244.5z"/>
</g>
</svg>
